{"file": "DL. 人情裏長屋 瑠璃子 (Bass).mid", "events": [{"bar": 10, "beat": 2.7090909090909037, "dur": 0.20000000000000284, "note": 60, "velocity": 90, "hand": "rh"}, {"bar": 11, "beat": 0.6499999999999986, "dur": 0.19999999999999574, "note": 60, "velocity": 90, "hand": "rh"}, {"bar": 11, "beat": 1.672727272727272, "dur": 0.19999999999999574, "note": 60, "velocity": 90, "hand": "rh"}, {"bar": 11, "beat": 3.8727272727272677, "dur": 0.20000000000000284, "note": 60, "velocity": 90, "hand": "rh"}, {"bar": 12, "beat": 1.75, "dur": 0.19999999999999574, "note": 60, "velocity": 90, "hand": "rh"}, {"bar": 12, "beat": 2.7727272727272734, "dur": 0.19999999999999574, "note": 60, "velocity": 90, "hand": "rh"}, {"bar": 13, "beat": 0.009090909090907928, "dur": 0.19999999999999574, "note": 60, "velocity": 90, "hand": "rh"}, {"bar": 13, "beat": 0.3499999999999943, "dur": 0.20000000000000284, "note": 60, "velocity": 90, "hand": "rh"}, {"bar": 13, "beat": 0.9727272727272691, "dur": 0.20000000000000284, "note": 60, "velocity": 90, "hand": "rh"}, {"bar": 13, "beat": 2.8499999999999943, "dur": 0.20000000000000284, "note": 60, "velocity": 90, "hand": "rh"}, {"bar": 13, "beat": 3.8727272727272677, "dur": 0.20000000000000284, "note": 60, "velocity": 90, "hand": "rh"}]}
{"file": "DL. 人情裏長屋 瑠璃子 (Bass).mid", "events": [{"bar": 14, "beat": 2.068181818181813, "dur": 0.20000000000000284, "note": 60, "velocity": 90, "hand": "rh"}, {"bar": 14, "beat": 3.9681818181818187, "dur": 0.19999999999999574, "note": 60, "velocity": 90, "hand": "rh"}, {"bar": 15, "beat": 3.6181818181818173, "dur": 0.19999999999999574, "note": 60, "velocity": 90, "hand": "rh"}]}
{"file": "DL. 人情裏長屋 瑠璃子 (Bass).mid", "events": [{"bar": 16, "beat": 1.0863636363636289, "dur": 0.20000000000000284, "note": 60, "velocity": 90, "hand": "rh"}, {"bar": 17, "beat": 3.61818181818181, "dur": 0.20000000000000284, "note": 60, "velocity": 90, "hand": "rh"}, {"bar": 18, "beat": 1.345454545454544, "dur": 0.20000000000000284, "note": 60, "velocity": 90, "hand": "rh"}, {"bar": 19, "beat": 2.440909090909088, "dur": 0.20000000000000284, "note": 60, "velocity": 90, "hand": "rh"}, {"bar": 19, "beat": 3.61818181818181, "dur": 0.20000000000000284, "note": 60, "velocity": 90, "hand": "rh"}]}
{"file": "DL. 人情裏長屋 瑠璃子 (Bass).mid", "events": [{"bar": 20, "beat": 1.663636363636357, "dur": 0.20000000000000284, "note": 60, "velocity": 90, "hand": "rh"}, {"bar": 20, "beat": 2.559090909090898, "dur": 0.20000000000000284, "note": 60, "velocity": 90, "hand": "rh"}, {"bar": 21, "beat": 2.163636363636357, "dur": 0.20000000000000284, "note": 60, "velocity": 90, "hand": "rh"}, {"bar": 21, "beat": 3.61818181818181, "dur": 0.20000000000000284, "note": 60, "velocity": 90, "hand": "rh"}, {"bar": 22, "beat": 1.963636363636354, "dur": 0.20000000000000284, "note": 60, "velocity": 90, "hand": "rh"}, {"bar": 22, "beat": 3.3045454545454476, "dur": 0.20000000000000284, "note": 60, "velocity": 90, "hand": "rh"}, {"bar": 23, "beat": 1.7818181818181813, "dur": 0.20000000000000284, "note": 60, "velocity": 90, "hand": "rh"}, {"bar": 23, "beat": 3.0818181818181785, "dur": 0.20000000000000284, "note": 60, "velocity": 90, "hand": "rh"}, {"bar": 23, "beat": 3.61818181818181, "dur": 0.20000000000000284, "note": 60, "velocity": 90, "hand": "rh"}]}
{"file": "DL. 人情裏長屋 瑠璃子 (Bass).mid", "events": [{"bar": 24, "beat": 0.36363636363635976, "dur": 0.20000000000000284, "note": 60, "velocity": 90, "hand": "rh"}, {"bar": 24, "beat": 1.6863636363636374, "dur": 0.19999999999998863, "note": 60, "velocity": 90, "hand": "rh"}, {"bar": 24, "beat": 2.8999999999999915, "dur": 0.20000000000000284, "note": 60, "velocity": 90, "hand": "rh"}, {"bar": 25, "beat": 0.18181818181817277, "dur": 0.20000000000000284, "note": 60, "velocity": 90, "hand": "rh"}, {"bar": 25, "beat": 0.8227272727272634, "dur": 0.20000000000000284, "note": 60, "velocity": 90, "hand": "rh"}, {"bar": 25, "beat": 1.163636363636357, "dur": 0.20000000000000284, "note": 60, "velocity": 90, "hand": "rh"}, {"bar": 25, "beat": 2.0999999999999943, "dur": 0.20000000000000284, "note": 60, "velocity": 90, "hand": "rh"}, {"bar": 25, "beat": 3.61818181818181, "dur": 0.20000000000000284, "note": 60, "velocity": 90, "hand": "rh"}, {"bar": 26, "beat": 1.345454545454544, "dur": 0.20000000000000284, "note": 60, "velocity": 90, "hand": "rh"}, {"bar": 26, "beat": 2.645454545454541, "dur": 0.20000000000000284, "note": 60, "velocity": 90, "hand": "rh"}, {"bar": 27, "beat": 1.163636363636357, "dur": 0.20000000000000284, "note": 60, "velocity": 90, "hand": "rh"}, {"bar": 27, "beat": 3.040909090909082, "dur": 0.20000000000000284, "note": 60, "velocity": 90, "hand": "rh"}, {"bar": 27, "beat": 3.61818181818181, "dur": 0.20000000000000284, "note": 60, "velocity": 90, "hand": "rh"}]}
{"file": "DL. 人情裏長屋 瑠璃子 (Bass).mid", "events": [{"bar": 28, "beat": 0.9590909090909037, "dur": 0.20000000000000284, "note": 60, "velocity": 90, "hand": "rh"}, {"bar": 28, "beat": 2.2181818181818187, "dur": 0.19999999999998863, "note": 60, "velocity": 90, "hand": "rh"}, {"bar": 29, "beat": 0.5, "dur": 0.19999999999998863, "note": 60, "velocity": 90, "hand": "rh"}, {"bar": 29, "beat": 0.5863636363636289, "dur": 0.11363636363635976, "note": 60, "velocity": 90, "hand": "rh"}, {"bar": 29, "beat": 2.0818181818181785, "dur": 0.20000000000000284, "note": 60, "velocity": 90, "hand": "rh"}, {"bar": 29, "beat": 3.3409090909090793, "dur": 0.20000000000000284, "note": 60, "velocity": 90, "hand": "rh"}]}
{"file": "DL. 人情裏長屋 瑠璃子 (Bass).mid", "events": [{"bar": 34, "beat": 3.7545454545454504, "dur": 0.19999999999998863, "note": 60, "velocity": 90, "hand": "rh"}, {"bar": 35, "beat": 2.3136363636363626, "dur": 0.19999999999998863, "note": 60, "velocity": 90, "hand": "rh"}]}
{"file": "DL. 人情裏長屋 瑠璃子 (Bass).mid", "events": [{"bar": 36, "beat": 0.8954545454545269, "dur": 0.20000000000001705, "note": 60, "velocity": 90, "hand": "rh"}, {"bar": 36, "beat": 3.222727272727269, "dur": 0.19999999999998863, "note": 60, "velocity": 90, "hand": "rh"}, {"bar": 36, "beat": 3.4363636363636374, "dur": 0.19999999999998863, "note": 60, "velocity": 90, "hand": "rh"}, {"bar": 37, "beat": 1.9954545454545496, "dur": 0.19999999999998863, "note": 60, "velocity": 90, "hand": "rh"}, {"bar": 38, "beat": 0.5318181818181813, "dur": 0.19999999999998863, "note": 60, "velocity": 90, "hand": "rh"}, {"bar": 38, "beat": 3.1136363636363455, "dur": 0.20000000000001705, "note": 60, "velocity": 90, "hand": "rh"}, {"bar": 39, "beat": 2.913636363636357, "dur": 0.19999999999998863, "note": 60, "velocity": 90, "hand": "rh"}]}
{"file": "DL. 人情裏長屋 瑠璃子 (Bass).mid", "events": [{"bar": 40, "beat": 0.1909090909090878, "dur": 0.19999999999998863, "note": 60, "velocity": 90, "hand": "rh"}, {"bar": 40, "beat": 0.8318181818181642, "dur": 0.20000000000001705, "note": 60, "velocity": 90, "hand": "rh"}, {"bar": 40, "beat": 1.472727272727269, "dur": 0.19999999999998863, "note": 60, "velocity": 90, "hand": "rh"}, {"bar": 40, "beat": 2.1136363636363455, "dur": 0.20000000000001705, "note": 60, "velocity": 90, "hand": "rh"}, {"bar": 40, "beat": 2.75, "dur": 0.19999999999998863, "note": 60, "velocity": 90, "hand": "rh"}, {"bar": 40, "beat": 3.222727272727269, "dur": 0.19999999999998863, "note": 60, "velocity": 90, "hand": "rh"}, {"bar": 40, "beat": 3.3909090909090764, "dur": 0.0318181818181813, "note": 60, "velocity": 90, "hand": "rh"}, {"bar": 41, "beat": 0.0318181818181813, "dur": 0.19999999999998863, "note": 60, "velocity": 90, "hand": "rh"}, {"bar": 41, "beat": 0.6727272727272577, "dur": 0.20000000000001705, "note": 60, "velocity": 90, "hand": "rh"}, {"bar": 41, "beat": 1.3136363636363626, "dur": 0.19999999999998863, "note": 60, "velocity": 90, "hand": "rh"}, {"bar": 41, "beat": 1.931818181818187, "dur": 0.19999999999998863, "note": 60, "velocity": 90, "hand": "rh"}, {"bar": 41, "beat": 2.5909090909090935, "dur": 0.19999999999998863, "note": 60, "velocity": 90, "hand": "rh"}, {"bar": 41, "beat": 3.2090909090908895, "dur": 0.20000000000001705, "note": 60, "velocity": 90, "hand": "rh"}, {"bar": 41, "beat": 3.8499999999999943, "dur": 0.19999999999998863, "note": 60, "velocity": 90, "hand": "rh"}, {"bar": 42, "beat": 0.5136363636363512, "dur": 0.20000000000001705, "note": 60, "velocity": 90, "hand": "rh"}, {"bar": 42, "beat": 1.1318181818181756, "dur": 0.19999999999998863, "note": 60, "velocity": 90, "hand": "rh"}, {"bar": 42, "beat": 1.772727272727252, "dur": 0.20000000000001705, "note": 60, "velocity": 90, "hand": "rh"}, {"bar": 42, "beat": 2.4090909090909065, "dur": 0.19999999999998863, "note": 60, "velocity": 90, "hand": "rh"}, {"bar": 42, "beat": 3.049999999999983, "dur": 0.20000000000001705, "note": 60, "velocity": 90, "hand": "rh"}, {"bar": 42, "beat": 3.690909090909088, "dur": 0.19999999999998863, "note": 60, "velocity": 90, "hand": "rh"}, {"bar": 43, "beat": 0.33181818181816425, "dur": 0.20000000000001705, "note": 60, "velocity": 90, "hand": "rh"}, {"bar": 43, "beat": 0.9499999999999886, "dur": 0.20000000000001705, "note": 60, "velocity": 90, "hand": "rh"}, {"bar": 43, "beat": 1.6090909090908951, "dur": 0.20000000000001705, "note": 60, "velocity": 90, "hand": "rh"}, {"bar": 43, "beat": 2.2272727272727195, "dur": 0.19999999999998863, "note": 60, "velocity": 90, "hand": "rh"}, {"bar": 43, "beat": 2.868181818181796, "dur": 0.20000000000001705, "note": 60, "velocity": 90, "hand": "rh"}, {"bar": 43, "beat": 3.509090909090901, "dur": 0.19999999999998863, "note": 60, "velocity": 90, "hand": "rh"}]}
{"file": "DL. 人情裏長屋 瑠璃子 (Bass).mid", "events": [{"bar": 44, "beat": 0.14999999999997726, "dur": 0.20000000000001705, "note": 60, "velocity": 90, "hand": "rh"}, {"bar": 44, "beat": 0.7909090909090821, "dur": 0.19999999999998863, "note": 60, "velocity": 90, "hand": "rh"}, {"bar": 44, "beat": 1.4272727272727082, "dur": 0.20000000000001705, "note": 60, "velocity": 90, "hand": "rh"}, {"bar": 45, "beat": 0.5863636363636147, "dur": 0.20000000000001705, "note": 60, "velocity": 90, "hand": "rh"}, {"bar": 45, "beat": 1.25, "dur": 0.19999999999998863, "note": 60, "velocity": 90, "hand": "rh"}, {"bar": 45, "beat": 1.886363636363626, "dur": 0.19999999999998863, "note": 60, "velocity": 90, "hand": "rh"}, {"bar": 45, "beat": 2.527272727272731, "dur": 0.19999999999998863, "note": 60, "velocity": 90, "hand": "rh"}, {"bar": 45, "beat": 2.827272727272714, "dur": 0.20000000000001705, "note": 60, "velocity": 90, "hand": "rh"}, {"bar": 45, "beat": 3.1681818181818073, "dur": 0.19999999999998863, "note": 60, "velocity": 90, "hand": "rh"}, {"bar": 45, "beat": 3.809090909090912, "dur": 0.19999999999998863, "note": 60, "velocity": 90, "hand": "rh"}, {"bar": 46, "beat": 0.44999999999998863, "dur": 0.19999999999998863, "note": 60, "velocity": 90, "hand": "rh"}, {"bar": 46, "beat": 1.0863636363636147, "dur": 0.20000000000001705, "note": 60, "velocity": 90, "hand": "rh"}, {"bar": 46, "beat": 1.704545454545439, "dur": 0.20000000000001705, "note": 60, "velocity": 90, "hand": "rh"}, {"bar": 46, "beat": 2.368181818181796, "dur": 0.20000000000001705, "note": 60, "velocity": 90, "hand": "rh"}, {"bar": 46, "beat": 3.009090909090901, "dur": 0.19999999999998863, "note": 60, "velocity": 90, "hand": "rh"}, {"bar": 46, "beat": 3.627272727272725, "dur": 0.19999999999998863, "note": 60, "velocity": 90, "hand": "rh"}, {"bar": 47, "beat": 0.26818181818180165, "dur": 0.20000000000001705, "note": 60, "velocity": 90, "hand": "rh"}, {"bar": 47, "beat": 0.6727272727272577, "dur": 0.20000000000001705, "note": 60, "velocity": 90, "hand": "rh"}, {"bar": 47, "beat": 0.9045454545454561, "dur": 0.19999999999998863, "note": 60, "velocity": 90, "hand": "rh"}, {"bar": 47, "beat": 1.568181818181813, "dur": 0.19999999999998863, "note": 60, "velocity": 90, "hand": "rh"}, {"bar": 47, "beat": 2.1863636363636374, "dur": 0.19999999999998863, "note": 60, "velocity": 90, "hand": "rh"}, {"bar": 47, "beat": 2.8045454545454334, "dur": 0.20000000000001705, "note": 60, "velocity": 90, "hand": "rh"}, {"bar": 47, "beat": 3.4681818181818187, "dur": 0.19999999999998863, "note": 60, "velocity": 90, "hand": "rh"}]}
